<svg
    xmlns="http://www.w3.org/2000/svg"
    viewBox="0 0 528 699"
    id="vector">
    <path
        id="path"
        d="M 0 17.063 L 444 17.063 L 444 674.063 L 0 674.063 Z"
        fill="#535461"
        stroke-width="1"/>
    <path
        id="path_1"
        d="M 323 691.063 L 0 674.063 L 0 17.063 L 323 0.063 L 323 691.063 Z"
        fill="#4db75a"
        stroke-width="1"/>
    <path
        id="path_2"
        d="M 292 377.063 C 292 376.003 292.422 374.984 293.172 374.235 C 293.921 373.485 294.94 373.063 296 373.063 C 297.06 373.063 298.079 373.485 298.828 374.235 C 299.578 374.984 300 376.003 300 377.063 C 300 378.123 299.578 379.142 298.828 379.891 C 298.079 380.641 297.06 381.063 296 381.063 C 294.94 381.063 293.921 380.641 293.172 379.891 C 292.422 379.142 292 378.123 292 377.063"
        fill="#535461"
        stroke-width="1"/>
    <path
        id="path_3"
        d="M 296 377.66 L 298.773 382.463 L 301.545 387.265 L 290.455 387.265 L 293.227 382.463 L 296 377.66 Z"
        fill="#535461"
        stroke-width="1"/>
    <path
        id="path_4"
        d="M 337 691.063 L 317.217 691 L 318 0.063 L 337 0.063 L 337 691.063 Z"
        fill="#4db75a"
        stroke-width="1"/>
    <path
        id="path_5"
        d="M 337.217 691 L 317.217 691 L 318.217 0 L 337.217 0 L 337.217 691 Z"
        fill="#ffffff"
        fill-opacity="0.1"
        stroke-width="1"/>
    <path
        id="path_6"
        d="M 283 348.063 C 283 344.617 284.371 341.308 286.808 338.871 C 289.245 336.434 292.554 335.063 296 335.063 C 299.446 335.063 302.755 336.434 305.192 338.871 C 307.629 341.308 309 344.617 309 348.063 C 309 351.509 307.629 354.818 305.192 357.255 C 302.755 359.692 299.446 361.063 296 361.063 C 292.554 361.063 289.245 359.692 286.808 357.255 C 284.371 354.818 283 351.509 283 348.063"
        fill="#000000"
        fill-opacity="0.1"
        stroke-width="1"/>
    <path
        id="path_7"
        d="M 283 346.063 C 283 342.617 284.371 339.308 286.808 336.871 C 289.245 334.434 292.554 333.063 296 333.063 C 299.446 333.063 302.755 334.434 305.192 336.871 C 307.629 339.308 309 342.617 309 346.063 C 309 349.509 307.629 352.818 305.192 355.255 C 302.755 357.692 299.446 359.063 296 359.063 C 292.554 359.063 289.245 357.692 286.808 355.255 C 284.371 352.818 283 349.509 283 346.063"
        fill="#535461"
        stroke-width="1"/>
    <path
        id="path_8"
        d="M 52.819 16.108 L 52.819 677.156 M 109.819 12.108 L 109.819 679.156 M 166.819 9.108 L 166.819 683 M 223.819 6.108 L 223.819 687.156 M 280.819 3.108 L 280.819 688"
        fill="#00000000"
        fill-opacity="0.1"
        stroke="#000000"
        stroke-opacity="0.1"
        stroke-width="2"/>
    <path
        id="path_9"
        d="M 423.717 95.323 C 423.717 105.132 427.881 114.55 435.286 121.486 C 442.691 128.422 452.745 132.323 463.217 132.323 C 473.689 132.323 483.743 128.422 491.148 121.486 C 498.553 114.55 502.717 105.132 502.717 95.323 C 502.717 85.514 498.553 76.096 491.148 69.16 C 483.743 62.224 473.689 58.323 463.217 58.323 C 452.745 58.323 442.691 62.224 435.286 69.16 C 427.881 76.096 423.717 85.514 423.717 95.323 Z"
        fill="#2f2e41"
        stroke-width="1"/>
    <path
        id="path_10"
        d="M 348.217 325.823 L 338.217 339.823 C 338.217 339.823 290.217 349.823 308.217 364.823 C 326.217 379.823 352.217 350.823 352.217 350.823 L 366.217 332.823 Z"
        fill="#ffb8b8"
        stroke-width="1"/>
    <path
        id="path_11"
        d="M 400.217 166.823 C 400.217 166.823 387.217 166.823 384.217 184.823 C 381.217 202.823 378.217 262.823 378.217 262.823 C 378.217 262.823 336.217 317.823 343.217 324.823 C 350.217 331.823 358.217 344.823 363.217 342.823 C 368.217 340.823 411.217 281.823 411.217 281.823 Z"
        fill="#4db75a"
        stroke-width="1"/>
    <path
        id="path_12"
        d="M 400.217 166.823 C 400.217 166.823 387.217 166.823 384.217 184.823 C 381.217 202.823 378.217 262.823 378.217 262.823 C 378.217 262.823 336.217 317.823 343.217 324.823 C 350.217 331.823 358.217 344.823 363.217 342.823 C 368.217 340.823 411.217 281.823 411.217 281.823 Z"
        fill="#000000"
        fill-opacity="0.1"
        stroke-width="1"/>
    <path
        id="path_13"
        d="M 440.217 115.823 C 440.217 115.823 439.217 154.823 427.217 156.823 C 415.217 158.823 419.217 171.823 419.217 171.823 C 419.217 171.823 458.217 194.823 484.217 171.823 L 489.217 159.823 C 489.217 159.823 471.217 146.823 479.217 128.823 Z"
        fill="#ffb8b8"
        stroke-width="1"/>
    <path
        id="path_14"
        d="M 373.217 355.823 C 373.217 355.823 314.217 465.823 336.217 499.823 C 358.217 533.823 391.217 603.823 396.217 603.823 C 401.217 603.823 429.217 589.823 427.217 580.823 C 425.217 571.823 395.217 504.823 387.217 498.823 C 379.217 492.823 383.217 476.823 384.217 475.823 C 385.217 474.823 418.217 421.823 418.217 421.823 C 418.217 421.823 417.217 505.823 421.217 518.823 C 425.217 531.823 420.217 624.823 425.217 628.823 C 430.217 632.823 453.217 639.823 457.217 633.823 C 461.217 627.823 473.217 536.823 465.217 515.823 L 480.217 371.823 Z"
        fill="#2f2e41"
        stroke-width="1"/>
    <path
        id="path_15"
        d="M 427.217 622.823 L 402.217 668.823 C 402.217 668.823 366.217 694.823 391.217 698.823 C 416.217 702.823 431.217 692.823 431.217 692.823 L 453.217 676.823 L 453.217 630.823 Z"
        fill="#2f2e41"
        stroke-width="1"/>
    <path
        id="path_16"
        d="M 393.217 596.823 L 406.217 627.823 C 406.217 627.823 411.217 640.823 406.217 643.823 C 401.217 646.823 387.217 664.823 396.217 666.823 C 398.027 667.178 399.867 667.36 401.712 667.369 C 409.206 667.495 416.649 666.104 423.591 663.279 C 430.534 660.454 436.833 656.253 442.11 650.93 L 450.217 642.823 C 450.217 642.823 422.447 578.875 422.832 579.349 C 423.217 579.823 393.217 596.823 393.217 596.823 Z"
        fill="#2f2e41"
        stroke-width="1"/>
    <path
        id="path_17"
        d="M 431.217 105.823 C 431.217 96.809 434.802 88.155 441.175 81.781 C 447.549 75.408 456.203 71.823 465.217 71.823 C 474.231 71.823 482.885 75.408 489.259 81.781 C 495.632 88.155 499.217 96.809 499.217 105.823 C 499.217 114.837 495.632 123.491 489.259 129.865 C 482.885 136.238 474.231 139.823 465.217 139.823 C 456.203 139.823 447.549 136.238 441.175 129.865 C 434.802 123.491 431.217 114.837 431.217 105.823"
        fill="#ffb8b8"
        stroke-width="1"/>
    <path
        id="path_18"
        d="M 484.717 153.323 L 474.217 163.823 C 474.217 163.823 442.217 175.823 427.217 163.823 C 427.217 163.823 432.717 152.323 432.717 153.323 C 432.717 154.323 389.217 160.823 385.217 178.823 C 381.217 196.823 388.217 227.823 388.217 227.823 C 388.217 227.823 360.217 359.823 371.217 362.823 C 382.217 365.823 485.217 390.823 484.217 371.823 C 483.217 352.823 492.217 274.823 492.217 274.823 L 527.217 207.823 C 527.217 207.823 522.217 185.823 510.217 178.823 C 498.217 171.823 484.717 153.323 484.717 153.323 Z"
        fill="#4db75a"
        stroke-width="1"/>
    <path
        id="path_19"
        d="M 440.217 348.823 L 427.217 356.823 C 427.217 356.823 377.217 390.823 403.217 396.823 C 429.217 402.823 444.217 372.823 444.217 372.823 L 454.217 360.823 Z"
        fill="#ffb8b8"
        stroke-width="1"/>
    <path
        id="path_20"
        d="M 514.217 201.823 L 523.217 210.823 C 523.217 210.823 529.217 294.823 517.217 311.823 C 505.217 328.823 450.217 374.823 447.217 371.823 C 444.217 368.823 425.217 353.823 429.217 351.823 C 433.217 349.823 486.4 294.254 486.4 294.254 L 482.217 216.823 Z"
        fill="#000000"
        fill-opacity="0.1"
        stroke-width="1"/>
    <path
        id="path_21"
        d="M 518.217 198.823 L 527.217 207.823 C 527.217 207.823 533.217 291.823 521.217 308.823 C 509.217 325.823 454.217 371.823 451.217 368.823 C 448.217 365.823 429.217 350.823 433.217 348.823 C 437.217 346.823 490.4 291.254 490.4 291.254 L 486.217 213.823 Z"
        fill="#4db75a"
        stroke-width="1"/>
    <path
        id="path_22"
        d="M 451.156 57.529 C 451.156 57.529 439.599 53.326 423.838 62.257 L 432.243 64.358 C 432.243 64.358 419.635 65.409 418.059 82.22 L 423.838 82.22 C 423.838 82.22 420.161 96.93 423.838 101.132 L 426.202 96.667 L 433.031 110.326 L 434.607 103.497 L 437.759 104.548 L 439.86 93.516 C 439.86 93.516 445.113 101.396 449.316 101.921 L 449.317 95.09 C 449.317 95.09 460.874 108.224 464.552 107.698 L 459.299 100.343 L 466.654 101.919 L 463.502 96.666 L 482.414 101.919 L 478.211 96.666 L 491.345 100.869 L 497.649 103.496 C 497.649 103.496 506.58 83.008 493.972 68.823 C 481.364 54.638 462.976 51.487 451.156 57.529 Z"
        fill="#2f2e41"
        stroke-width="1"/>
</svg>
